<svg width="38" height="47" viewBox="0 0 38 47" fill="none" xmlns="http://www.w3.org/2000/svg">
<path d="M18.6667 0C8.37667 0 0 8.37667 0 18.6667C0 23.0183 1.54 27.265 4.32833 30.6133L16.4267 45.1383C16.9867 45.8033 17.8033 46.1883 18.6667 46.1883C19.53 46.1883 20.3467 45.8033 20.9067 45.1383L33.005 30.6133C35.8005 27.2598 37.332 23.0325 37.3333 18.6667C37.3333 8.37667 28.9567 0 18.6667 0ZM18.6667 25.6667C14.805 25.6667 11.6667 22.5283 11.6667 18.6667C11.6667 14.805 14.805 11.6667 18.6667 11.6667C22.5283 11.6667 25.6667 14.805 25.6667 18.6667C25.6667 22.5283 22.5283 25.6667 18.6667 25.6667Z" fill="#F0AC89"/>
</svg>
